<?xml version="1.0" encoding="UTF-8" standalone="no"?>
<!-- Created with Inkscape (http://www.inkscape.org/) -->

<svg
   xmlns:dc="http://purl.org/dc/elements/1.1/"
   xmlns:cc="http://creativecommons.org/ns#"
   xmlns:rdf="http://www.w3.org/1999/02/22-rdf-syntax-ns#"
   xmlns:svg="http://www.w3.org/2000/svg"
   xmlns="http://www.w3.org/2000/svg"
   xmlns:sodipodi="http://sodipodi.sourceforge.net/DTD/sodipodi-0.dtd"
   xmlns:inkscape="http://www.inkscape.org/namespaces/inkscape"
   width="210mm"
   height="297mm"
   viewBox="0 0 744.09448819 1052.3622047"
   id="svg2"
   version="1.1"
   inkscape:version="0.91 r13725"
   inkscape:export-filename="C:\Users\Lassi\GitHub\CarMon\CarMon\Resources\drawable\icon2.png"
   inkscape:export-xdpi="6.1599998"
   inkscape:export-ydpi="6.1599998"
   sodipodi:docname="carmon.svg">
  <defs
     id="defs4" />
  <sodipodi:namedview
     id="base"
     pagecolor="#ffffff"
     bordercolor="#666666"
     borderopacity="1.0"
     inkscape:pageopacity="0.0"
     inkscape:pageshadow="2"
     inkscape:zoom="0.58919246"
     inkscape:cx="333.46415"
     inkscape:cy="492.01056"
     inkscape:document-units="px"
     inkscape:current-layer="layer1"
     showgrid="false"
     inkscape:window-width="1920"
     inkscape:window-height="1057"
     inkscape:window-x="-8"
     inkscape:window-y="-8"
     inkscape:window-maximized="1" />
  <metadata
     id="metadata7">
    <rdf:RDF>
      <cc:Work
         rdf:about="">
        <dc:format>image/svg+xml</dc:format>
        <dc:type
           rdf:resource="http://purl.org/dc/dcmitype/StillImage" />
        <dc:title></dc:title>
      </cc:Work>
    </rdf:RDF>
  </metadata>
  <g
     inkscape:label="Layer 1"
     inkscape:groupmode="layer"
     id="layer1" />
  <g
     inkscape:groupmode="layer"
     id="layer2"
     inkscape:label="Layer 2"
     sodipodi:insensitive="true">
    <path
       style="fill:#ff6600"
       d="M 304.6128,985.35281 C 201.7636,976.43827 152.52514,964.54755 108.44332,937.97929 72.228102,916.15227 52.684635,880.46878 39.852643,812.74272 31.695736,769.69132 32.485495,625.27915 41.227652,561.31415 68.337542,362.95529 130.25453,193.35449 200.31949,125.53541 260.90019,66.896576 373.16642,60.806626 517.46994,108.3314 c 48.1638,15.86221 88.2322,32.05136 125,50.50471 l 22.14286,11.11325 0,59.96811 c 0,32.98246 -0.69803,59.96811 -1.55118,59.96811 -0.85314,0 -8.246,-4.98339 -16.42857,-11.0742 -83.96188,-62.49818 -206.76945,-91.08732 -303.5154,-70.65725 -36.89078,7.79032 -31.82844,0.65217 -59.32997,83.65816 -90.95478,274.52255 -123.18287,459.49155 -91.26218,523.78758 9.53532,19.20645 23.57466,28.58117 56.37301,37.64288 20.7234,5.72557 29.5251,6.32189 94.28571,6.3878 75.06586,0.0766 108.23318,-2.73308 201.42858,-17.06248 40.41997,-6.21483 145.09002,-25.97432 167.84691,-31.68592 l 7.31803,-1.83671 -1.58672,70.6148 c -0.87271,38.83814 -2.2274,71.25545 -3.01042,72.03851 -4.25372,4.25369 -128.65775,21.04826 -209.13923,28.23383 -47.20255,4.21434 -175.50792,7.66691 -201.42857,5.42023 z"
       id="path3350"
       inkscape:connector-curvature="0" />
    <path
       style="fill:#ff6600"
       d=""
       id="path3380"
       inkscape:connector-curvature="0" />
    <path
       style="fill:#ff6600"
       d="M 298.55318,984.5169 C 194.20564,974.64771 144.99505,961.85877 102.52216,933.57174 72.170253,913.3573 53.606363,878.45439 41.449624,818.74617 36.67054,795.27356 34.814095,762.54893 34.846231,702.34441 34.885026,629.66414 37.252287,590.22624 44.499052,541.53109 67.099662,389.6647 111.59342,251.82032 163.73034,172.14528 c 26.5802,-40.61955 49.1087,-61.60007 81.87087,-76.245338 64.4067,-28.790935 159.25767,-24.346418 271.4714,12.720578 48.55781,16.03986 82.67912,29.81853 125.49808,50.67791 l 21.4163,10.43301 -0.2638,59.17325 c -0.14508,32.54529 -0.51706,59.42629 -0.82662,59.73554 -0.69584,0.69516 -2.71239,-0.57961 -15.56092,-9.83692 -20.78639,-14.97648 -38.16218,-25.39557 -59.40334,-35.62014 -47.18346,-22.71207 -97.51648,-36.36558 -150.1766,-40.73742 -16.01561,-1.32962 -56.97346,-0.58942 -70.46438,1.27343 -15.44493,2.13268 -43.26932,7.88924 -48.02847,9.93657 -5.21009,2.24132 -10.11136,7.64212 -13.6344,15.02397 -8.41732,17.63692 -47.66111,139.56022 -68.46694,212.71431 -55.25649,194.28391 -70.50481,321.89377 -44.71871,374.24104 6.48884,13.17271 14.43913,20.99683 28.03741,27.59243 12.45112,6.0392 28.90362,11.19319 44.97681,14.08964 20.57392,3.70751 120.00564,3.64886 166.32935,-0.0981 55.88677,-4.52049 138.97419,-17.44527 238.02804,-37.02677 14.23028,-2.81312 30.78747,-6.23041 36.79375,-7.59399 6.00628,-1.36357 11.31872,-2.47923 11.80544,-2.47923 1.82611,0 -2.01031,139.55126 -3.88804,141.42892 -4.44728,4.44727 -161.72031,24.96527 -222.91154,29.08133 -60.36976,4.06073 -168.25974,6.23328 -193.06085,3.88761 z"
       id="path3382"
       inkscape:connector-curvature="0" />
  </g>
</svg>
